<svg width="40" height="40" viewBox="0 0 40 40" fill="none" xmlns="http://www.w3.org/2000/svg">
  <defs>
    <linearGradient id="grad1" x1="0%" y1="0%" x2="100%" y2="100%">
      <stop offset="0%" style="stop-color:#3b82f6;stop-opacity:1" />
      <stop offset="100%" style="stop-color:#1d4ed8;stop-opacity:1" />
    </linearGradient>
  </defs>
  
  <!-- Main circle background -->
  <circle cx="20" cy="20" r="18" fill="url(#grad1)" stroke="#1e40af" stroke-width="2"/>
  
  <!-- Pulse rings -->
  <circle cx="20" cy="20" r="14" fill="none" stroke="rgba(255,255,255,0.3)" stroke-width="1">
    <animate attributeName="r" values="14;16;14" dur="2s" repeatCount="indefinite"/>
    <animate attributeName="stroke-opacity" values="0.3;0.1;0.3" dur="2s" repeatCount="indefinite"/>
  </circle>
  
  <circle cx="20" cy="20" r="10" fill="none" stroke="rgba(255,255,255,0.4)" stroke-width="1">
    <animate attributeName="r" values="10;12;10" dur="2s" begin="0.5s" repeatCount="indefinite"/>
    <animate attributeName="stroke-opacity" values="0.4;0.1;0.4" dur="2s" begin="0.5s" repeatCount="indefinite"/>
  </circle>
  
  <!-- Central P letter -->
  <path d="M16 12 L16 28 L20 28 L20 21 L24 21 C25.5 21 26.5 19.8 26.5 18.5 L26.5 14.5 C26.5 13.2 25.5 12 24 12 L16 12 Z M18.5 14.5 L23.5 14.5 C23.8 14.5 24 14.7 24 15 L24 18 C24 18.3 23.8 18.5 23.5 18.5 L18.5 18.5 L18.5 14.5 Z" fill="white" stroke="none"/>
</svg>